<svg width="134" height="40" viewBox="0 0 134 40" fill="none" xmlns="http://www.w3.org/2000/svg">
<path d="M30.5121 1.97534C29.5082 1.97534 28.6915 2.83437 28.6915 3.89037C28.6915 4.47115 28.9438 4.98571 29.3331 5.33727L26.5627 9.4385L2.32679 9.43939L1.87793 9.88102V35.4637L2.35576 35.9919H29.8453L30.2073 35.4637V11.2608L29.8453 10.9061H3.81235L3.33452 11.2608V34.0504L3.81235 34.5786H28.5017L28.8637 34.0504V12.8507L28.5017 12.4961H5.32394L4.84652 12.8507V32.46L5.32394 32.9886H26.9905L27.3525 32.46V14.2336L26.9905 13.8789H6.81201L6.3346 14.2336V31.0471L6.81201 31.5753H10.8194L11.1243 31.4048L15.088 26.9821H15.2899H24.0979H24.6656V26.191V25.745V25.0003V17.6017V17.5593V17.0894H24.0979H15.2895H14.5875V17.5593V17.6017V25.0008V25.7454V26.1915V26.2745L10.6389 30.692H7.17436V14.7623H26.5127V32.1053H5.68629V13.379H28.0243V33.6953H4.17471V11.789H29.3679V35.1086H2.71812V10.3227L26.7651 10.3218L27.1358 10.1359L30.0901 5.74798C30.2262 5.78245 30.3664 5.80542 30.5125 5.80542C31.5169 5.80542 32.3336 4.9464 32.3336 3.89037C32.3336 2.83437 31.5165 1.97534 30.5121 1.97534ZM15.2597 17.6193H23.9934V25.0392H15.2597V17.6193ZM15.2895 25.7454H23.9934V26.2754H15.2597V25.7454H15.2895ZM30.5121 5.20077C29.8244 5.20077 29.2668 4.61426 29.2668 3.89037C29.2668 3.16694 29.8244 2.57997 30.5121 2.57997C31.2007 2.57997 31.7584 3.16694 31.7584 3.89037C31.7584 4.61381 31.2007 5.20077 30.5121 5.20077Z" fill="url(#paint0_linear_179_244)"/>
<path d="M47.3198 17.1808V25.1263C47.3198 25.2295 47.4879 25.259 47.4879 25.1263V21.1609H50.0668C50.2067 21.1609 50.2067 20.9546 50.0668 20.9546H47.4879V17.2988H50.6274C50.7255 17.2988 50.7532 17.1072 50.6274 17.1072H47.4039C47.3621 17.1072 47.3198 17.1219 47.3198 17.1808ZM48.2029 26.0255H46.5911C46.5211 26.0255 46.479 25.9666 46.479 25.8928V16.4291C46.479 16.3553 46.5211 16.2964 46.5911 16.2964H51.356C51.426 16.2964 51.4823 16.3553 51.4823 16.4291V18.0064C51.4823 18.08 51.426 18.139 51.356 18.139H48.3288V20.1438H50.6832C50.7532 20.1438 50.7954 20.2028 50.7954 20.2765V21.8833C50.7954 21.957 50.7532 22.0159 50.6832 22.0159H48.3288V25.8928C48.3288 25.9666 48.2729 26.0255 48.2029 26.0255ZM57.9006 22.6203V16.4291C57.9006 16.3553 57.9569 16.2964 58.0269 16.2964H59.6245C59.6945 16.2964 59.7508 16.3553 59.7508 16.4291V23.092C59.7508 25.2148 58.6433 26.1729 56.5555 26.1729C54.5795 26.1729 53.3461 25.3474 53.3461 23.092V16.4291C53.3461 16.3553 53.402 16.2964 53.4724 16.2964H55.0837C55.1541 16.2964 55.21 16.3553 55.21 16.4291V22.6203C55.21 23.9028 55.8968 24.1829 56.4715 24.1829H56.6396C57.5086 24.1829 57.9006 23.5637 57.9006 22.6203ZM54.2152 17.2398V22.9741C54.2152 24.3008 55.0701 25.259 56.4011 25.259H56.7518C58.0828 25.259 58.9518 24.2566 58.9518 22.9741V17.2398C58.9518 17.1072 58.7837 17.0924 58.7837 17.2398V22.9741C58.7837 24.1829 57.9569 25.0674 56.7518 25.0674H56.4011C55.2241 25.0674 54.3832 24.2714 54.3832 22.9741V17.2398C54.3832 17.1072 54.2152 17.1072 54.2152 17.2398ZM63.7166 18.139H61.7269C61.6565 18.139 61.6006 18.08 61.6006 18.0064V16.4291C61.6006 16.3553 61.6565 16.2964 61.7269 16.2964H67.5706C67.641 16.2964 67.6968 16.3553 67.6968 16.4291V18.0064C67.6968 18.08 67.641 18.139 67.5706 18.139H65.5809V25.8928C65.5809 25.9666 65.5245 26.0255 65.4546 26.0255H63.8429C63.7729 26.0255 63.7166 25.9666 63.7166 25.8928V18.139ZM66.7156 17.1072H62.4837C62.3856 17.1072 62.3856 17.2988 62.4837 17.2988H64.5574V25.1115C64.5574 25.2148 64.74 25.2148 64.74 25.1115V17.2988H66.7156C66.856 17.2988 66.8419 17.1072 66.7156 17.1072ZM74.1156 22.6203V16.4291C74.1156 16.3553 74.1715 16.2964 74.2414 16.2964H75.8391C75.9095 16.2964 75.9654 16.3553 75.9654 16.4291V23.092C75.9654 25.2148 74.8583 26.1729 72.7701 26.1729C70.794 26.1729 69.5607 25.3474 69.5607 23.092V16.4291C69.5607 16.3553 69.617 16.2964 69.687 16.2964H71.2987C71.3687 16.2964 71.4245 16.3553 71.4245 16.4291V22.6203C71.4245 23.9028 72.1114 24.1829 72.686 24.1829H72.8541C73.7231 24.1829 74.1156 23.5637 74.1156 22.6203ZM70.4297 17.2398V22.9741C70.4297 24.3008 71.2846 25.259 72.6161 25.259H72.9663C74.2978 25.259 75.1663 24.2566 75.1663 22.9741V17.2398C75.1663 17.1072 74.9983 17.0924 74.9983 17.2398V22.9741C74.9983 24.1829 74.1715 25.0674 72.9663 25.0674H72.6161C71.4386 25.0674 70.5978 24.2714 70.5978 22.9741V17.2398C70.5978 17.1072 70.4297 17.1072 70.4297 17.2398ZM83.7433 22.1781C83.5471 22.6056 83.2668 22.9299 82.8743 23.1215L84.0518 25.8486C84.0936 25.9371 84.0377 26.0255 83.9536 26.0255H82.2297C82.1738 26.0255 82.1457 25.996 82.1316 25.9518L81.0386 23.4458H80.3241V25.8928C80.3241 25.9666 80.2677 26.0255 80.1978 26.0255H78.586C78.5302 26.0255 78.4879 25.9666 78.4879 25.8928V16.4291C78.4879 16.3553 78.5302 16.2964 78.586 16.2964H81.5011C83.0565 16.2964 83.9954 17.2251 83.9954 18.9498V20.8072C83.9954 21.3231 83.9114 21.8096 83.7433 22.1781ZM82.1598 20.3502V19.392C82.1598 18.3601 81.7954 18.2569 80.7302 18.2569H80.3241V21.5148H80.7302C81.6133 21.5148 82.1316 21.5 82.1598 20.3502ZM79.5109 25.1263V22.6056H81.5292L82.7062 25.1558C82.7344 25.2295 82.9025 25.2 82.8607 25.0674L81.6832 22.5614C82.7762 22.3992 83.1546 21.7948 83.1546 20.704V18.8613C83.1546 17.2398 81.7532 17.1072 81.3189 17.1072H79.4269C79.3987 17.1072 79.3429 17.1513 79.3429 17.1956V25.1263C79.3429 25.2295 79.5109 25.2295 79.5109 25.1263ZM82.9865 18.8613V20.704C82.9865 22.2075 82.0757 22.414 81.1926 22.414H79.5109V17.2988H81.3189C82.8325 17.2988 82.9865 18.3749 82.9865 18.8613ZM86.5884 26.0255C86.5184 26.0255 86.4762 25.9666 86.4762 25.8928V16.4291C86.4762 16.3553 86.5184 16.2964 86.5884 16.2964H91.3532C91.4231 16.2964 91.4795 16.3553 91.4795 16.4291V18.0064C91.4795 18.08 91.4231 18.139 91.3532 18.139H88.3259V20.1438H90.6804C90.7508 20.1438 90.7926 20.2028 90.7926 20.2765V21.8833C90.7926 21.957 90.7508 22.0159 90.6804 22.0159H88.3259V24.1829H91.3532C91.4231 24.1829 91.4795 24.2419 91.4795 24.3155V25.8928C91.4795 25.9666 91.4231 26.0255 91.3532 26.0255H86.5884ZM87.2889 17.2251V25.0674C87.2889 25.1558 87.3452 25.1853 87.4011 25.1853H90.6245C90.7504 25.1853 90.7227 25.0084 90.6245 25.0084H87.471V21.1609H90.0499C90.1339 21.1609 90.1339 20.9546 90.0499 20.9546H87.471V17.2988H90.6245C90.7227 17.2988 90.7504 17.1072 90.6245 17.1072H87.4011C87.3452 17.1072 87.2889 17.1513 87.2889 17.2251ZM96.8607 16.2964C98.4166 16.2964 99.3555 17.2251 99.3555 18.9498V20.8072C99.3555 22.3845 98.4306 23.4458 96.8607 23.4458H95.6837V25.8928C95.6837 25.9666 95.6278 26.0255 95.5574 26.0255H93.9457C93.8898 26.0255 93.848 25.9666 93.848 25.8928V16.4291C93.848 16.3553 93.8898 16.2964 93.9457 16.2964H96.8607ZM97.5194 20.3649V19.392C97.5194 18.3749 97.071 18.2717 96.0903 18.2717H95.6837V21.5148H96.0903C96.8607 21.5148 97.5194 21.3674 97.5194 20.3649ZM98.5147 20.704V18.8613C98.5147 17.2398 97.3236 17.1072 96.6785 17.1072H94.787C94.7588 17.1072 94.7025 17.1513 94.7025 17.1956V25.1263C94.7025 25.2295 94.871 25.2295 94.871 25.1263V22.6203H96.5527C97.786 22.6203 98.5147 22.1633 98.5147 20.704ZM94.871 17.2988H96.6785C98.2344 17.2988 98.3325 18.3749 98.3325 18.8613V20.704C98.3325 22.2075 97.4353 22.414 96.5527 22.414H94.871V17.2988ZM101.444 26.0255C101.373 26.0255 101.332 25.9666 101.332 25.8928V16.4291C101.332 16.3553 101.373 16.2964 101.444 16.2964H106.209C106.279 16.2964 106.335 16.3553 106.335 16.4291V18.0064C106.335 18.08 106.279 18.139 106.209 18.139H103.181V20.1438H105.536C105.606 20.1438 105.648 20.2028 105.648 20.2765V21.8833C105.648 21.957 105.606 22.0159 105.536 22.0159H103.181V24.1829H106.209C106.279 24.1829 106.335 24.2419 106.335 24.3155V25.8928C106.335 25.9666 106.279 26.0255 106.209 26.0255H101.444ZM102.144 17.2251V25.0674C102.144 25.1558 102.201 25.1853 102.256 25.1853H105.48C105.606 25.1853 105.578 25.0084 105.48 25.0084H102.326V21.1609H104.905C104.989 21.1609 104.989 20.9546 104.905 20.9546H102.326V17.2988H105.48C105.578 17.2988 105.606 17.1072 105.48 17.1072H102.256C102.201 17.1072 102.144 17.1513 102.144 17.2251ZM112.319 16.2964C113.272 16.2964 113.987 16.5765 114.463 17.1219C114.883 17.6083 115.094 18.3307 115.094 19.2151V23.1215C115.094 24.9052 114.113 26.0255 112.319 26.0255H108.815C108.745 26.0255 108.703 25.9666 108.703 25.8928V16.4291C108.703 16.3553 108.745 16.2964 108.815 16.2964H112.319ZM113.258 22.6793V19.6574C113.258 18.7287 112.795 18.139 111.814 18.139H110.553V24.1829H111.814C112.655 24.1829 113.258 23.608 113.258 22.6793ZM109.558 17.1956V25.1263C109.558 25.1853 109.614 25.2 109.642 25.2H111.926C113.538 25.2 114.267 24.1829 114.267 23.2394V19.4657C114.267 17.9032 113.482 17.1072 111.884 17.1072H109.642C109.614 17.1072 109.558 17.1219 109.558 17.1956ZM114.099 19.4657V23.2394C114.099 24.4188 112.978 25.0379 111.926 25.0379H109.726V17.2988H111.884C113.356 17.2988 114.099 17.9916 114.099 19.4657ZM117.658 26.0255C117.588 26.0255 117.546 25.9666 117.546 25.8928V16.4291C117.546 16.3553 117.588 16.2964 117.658 16.2964H119.256C119.326 16.2964 119.382 16.3553 119.382 16.4291V25.8928C119.382 25.9666 119.326 26.0255 119.256 26.0255H117.658ZM118.387 17.1808V25.1263C118.387 25.259 118.541 25.259 118.541 25.1263V17.1808C118.541 17.0777 118.387 17.0777 118.387 17.1808ZM123.712 16.3848C123.726 16.3406 123.755 16.2964 123.81 16.2964H125.548C125.604 16.2964 125.633 16.3406 125.647 16.3848L128.071 25.8634C128.085 25.9518 128.029 26.0255 127.945 26.0255H126.347C126.305 26.0255 126.263 25.996 126.249 25.9371L125.702 23.8733H123.656L123.124 25.9371C123.11 25.996 123.082 26.0255 123.026 26.0255H121.414C121.33 26.0255 121.274 25.9518 121.288 25.8634L123.712 16.3848ZM124.105 22.0454H125.268L124.665 19.8195L124.105 22.0454ZM126.263 22.9152L126.908 25.1263C126.936 25.2148 127.09 25.2 127.048 25.0821L124.806 17.2398C124.764 17.0482 124.525 17.0334 124.483 17.2398L122.311 25.0821C122.269 25.1853 122.423 25.2295 122.465 25.141L123.082 22.9152H126.263ZM123.124 22.7235L124.651 17.2988L126.207 22.7235H123.124Z" fill="#808080"/>
<defs>
<linearGradient id="paint0_linear_179_244" x1="1.87793" y1="1.97534" x2="32.3336" y2="1.97534" gradientUnits="userSpaceOnUse">
<stop stop-color="#808080"/>
<stop offset="1" stop-color="#808080"/>
</linearGradient>
</defs>
</svg>
