<svg width="159" height="40" viewBox="0 0 159 40" fill="none" xmlns="http://www.w3.org/2000/svg">
<mask id="mask0_179_214" style="mask-type:luminance" maskUnits="userSpaceOnUse" x="7" y="8" width="24" height="24">
<path d="M7.64307 8.4624H30.3407V31.3582H7.64307V8.4624Z" fill="white"/>
</mask>
<g mask="url(#mask0_179_214)">
<path d="M7.64307 8.4624H30.3407V31.3582H7.64307V8.4624Z" fill="#808080" fill-opacity="0.62"/>
</g>
<path d="M12.7495 14.95H15.0218V24.8708H12.7495V14.95Z" fill="white"/>
<path d="M17.2896 14.95H19.5577V24.8708H17.2896V14.95Z" fill="white"/>
<path d="M19.1816 18.7666H23.3419V21.0541H19.1816V18.7666Z" fill="white"/>
<path d="M22.9663 14.95H25.2344V24.8708H22.9663V14.95Z" fill="white"/>
<path d="M34.0713 13.9834H36.6451V25.4126H34.0713V13.9834Z" fill="#808080" fill-opacity="0.62"/>
<path d="M39.3472 25.4126V13.9834H41.9954L44.9741 19.6667L46.0978 22.1917H46.1722C46.1185 21.5834 46.0441 20.9126 45.9697 20.1626C45.8954 19.4167 45.8582 18.7084 45.8582 18.0251V13.9834H48.3122V25.4126H45.664L42.677 19.7126L41.5533 17.2209H41.4789C41.5327 17.8501 41.607 18.5334 41.6814 19.2501C41.7557 19.9792 41.7929 20.6792 41.7929 21.3542V25.4042H39.3472V25.4126Z" fill="#808080" fill-opacity="0.62"/>
<path d="M50.9932 25.4126V13.9834H54.2239C55.0997 13.9834 55.893 14.0959 56.5912 14.3167C57.2935 14.5376 57.8925 14.8792 58.4007 15.3417C58.8964 15.8001 59.2848 16.3917 59.5533 17.1042C59.8219 17.8126 59.9582 18.6626 59.9582 19.6459C59.9582 20.6251 59.8219 21.4834 59.5533 22.2042C59.2848 22.9292 58.9088 23.5209 58.4172 24.0001C57.9297 24.4792 57.3389 24.8292 56.6573 25.0626C55.9756 25.2917 55.2113 25.4126 54.3685 25.4126H50.9932ZM53.5794 23.3167H54.0669C54.5544 23.3167 54.9964 23.2542 55.3931 23.1251C55.7897 22.9959 56.1326 22.7917 56.4094 22.5084C56.6862 22.2209 56.9051 21.8417 57.0621 21.3709C57.2191 20.9001 57.3017 20.3292 57.3017 19.6376C57.3017 18.9667 57.2191 18.3917 57.0621 17.9334C56.9051 17.4709 56.6862 17.1042 56.4094 16.8251C56.1326 16.5501 55.7897 16.3542 55.3931 16.2334C54.9964 16.1167 54.5544 16.0584 54.0669 16.0584H53.5794V23.3167Z" fill="#808080" fill-opacity="0.62"/>
<path d="M62.1274 13.9834H64.7013V25.4126H62.1274V13.9834Z" fill="#808080" fill-opacity="0.62"/>
<path d="M67.4028 25.4126V13.9834H74.5501V16.1626H69.9725V18.4584H73.8643V20.6167H69.9725V23.2459H74.7236V25.4209H67.4028V25.4126Z" fill="#808080" fill-opacity="0.62"/>
<path d="M80.5078 25.4126V13.9834H83.0775V18.3834H87.0271V13.9834H89.6175V25.4126H87.0271V20.6459H83.0775V25.4126H80.5078Z" fill="#808080" fill-opacity="0.62"/>
<path d="M90.8608 25.4126L94.4303 13.9834H97.5288L101.107 25.4126H98.3799L97.6776 22.6917H94.1907L93.4884 25.4126H90.8608ZM94.9922 19.6292L94.7154 20.6792H97.1529L96.8844 19.6292C96.7191 19.0584 96.5621 18.4501 96.4134 17.8042C96.2647 17.1584 96.1077 16.5417 95.9631 15.9501H95.8887C95.7482 16.5584 95.6036 17.1751 95.4549 17.8126C95.3144 18.4501 95.1574 19.0584 94.9922 19.6292Z" fill="#808080" fill-opacity="0.62"/>
<mask id="mask1_179_214" style="mask-type:luminance" maskUnits="userSpaceOnUse" x="101" y="13" width="11" height="13">
<path d="M101.532 13.7708H111.051V25.6166H101.532V13.7708Z" fill="white"/>
</mask>
<g mask="url(#mask1_179_214)">
<path d="M106.944 25.6166C106.217 25.6166 105.535 25.4875 104.899 25.2375C104.25 24.9875 103.689 24.6208 103.209 24.1208C102.722 23.6333 102.342 23.025 102.065 22.2875C101.788 21.5583 101.644 20.7083 101.644 19.75C101.644 18.8 101.788 17.9583 102.086 17.2125C102.379 16.475 102.767 15.8375 103.255 15.3333C103.746 14.8167 104.317 14.4292 104.973 14.1583C105.626 13.8917 106.316 13.7542 107.039 13.7542C107.774 13.7542 108.431 13.9 109.018 14.1958C109.601 14.4917 110.088 14.8417 110.476 15.2375L109.105 16.9083C108.807 16.6416 108.502 16.4208 108.179 16.2542C107.857 16.0875 107.498 15.9958 107.085 15.9958C106.696 15.9958 106.337 16.0792 105.986 16.2542C105.643 16.4208 105.341 16.6708 105.093 16.9833C104.841 17.2958 104.639 17.6833 104.49 18.1333C104.345 18.5875 104.271 19.1042 104.271 19.675C104.271 20.8542 104.519 21.7708 105.027 22.4125C105.523 23.0583 106.196 23.3833 107.047 23.3833C107.518 23.3833 107.931 23.2833 108.299 23.0791C108.671 22.875 108.993 22.6166 109.27 22.3125L110.633 23.9291C109.683 25.0625 108.448 25.6166 106.944 25.6166Z" fill="#808080" fill-opacity="0.62"/>
</g>
<path d="M112.377 25.4126V13.9834H114.951V18.6626H115.025L118.425 13.9834H121.268L117.81 18.5417L121.896 25.4126H119.074L116.285 20.5959L114.959 22.3501V25.4126H112.377Z" fill="#808080" fill-opacity="0.62"/>
<path d="M123.139 25.4126V13.9834H130.286V16.1626H125.713V18.4584H129.605V20.6167H125.713V23.2459H130.46V25.4209H123.139V25.4126Z" fill="#808080" fill-opacity="0.62"/>
<path d="M132.74 25.4126V13.9834H136.859C137.471 13.9834 138.041 14.0417 138.565 14.1584C139.103 14.2792 139.561 14.4751 139.958 14.7501C140.354 15.0292 140.668 15.3876 140.908 15.8501C141.139 16.3001 141.259 16.8709 141.259 17.5459C141.259 18.3834 141.077 19.0751 140.705 19.6209C140.338 20.1626 139.85 20.5709 139.222 20.8376L141.813 25.4126H138.925L136.731 21.3001H135.31V25.4126H132.74ZM135.31 19.2417H136.64C137.314 19.2417 137.83 19.1042 138.189 18.8084C138.549 18.5209 138.722 18.1001 138.722 17.5376C138.722 16.9751 138.549 16.5876 138.189 16.3626C137.83 16.1417 137.314 16.0334 136.64 16.0334H135.31V19.2417Z" fill="#808080" fill-opacity="0.62"/>
<mask id="mask2_179_214" style="mask-type:luminance" maskUnits="userSpaceOnUse" x="141" y="13" width="11" height="13">
<path d="M141.722 13.7708H151.241V25.6166H141.722V13.7708Z" fill="white"/>
</mask>
<g mask="url(#mask2_179_214)">
<path d="M146.721 25.6165C145.973 25.6165 145.225 25.4749 144.486 25.1999C143.751 24.9249 143.085 24.5165 142.495 23.9624L143.97 22.1915C144.379 22.5415 144.829 22.829 145.329 23.0499C145.825 23.2707 146.312 23.3832 146.795 23.3832C147.328 23.3832 147.733 23.2832 147.993 23.0874C148.258 22.8832 148.39 22.6165 148.39 22.2874C148.39 22.1082 148.353 21.9624 148.279 21.8332C148.204 21.704 148.093 21.5957 147.948 21.4915C147.799 21.3915 147.622 21.2999 147.419 21.2165C147.217 21.1249 146.985 21.029 146.746 20.929L145.263 20.304C144.969 20.1832 144.693 20.0332 144.416 19.8499C144.139 19.6665 143.899 19.4457 143.676 19.1957C143.465 18.9457 143.288 18.6499 143.16 18.3207C143.032 17.9874 142.966 17.6082 142.966 17.1832C142.966 16.7165 143.069 16.2832 143.263 15.8665C143.465 15.4499 143.742 15.0915 144.102 14.779C144.461 14.4624 144.895 14.2249 145.391 14.0499C145.891 13.8749 146.432 13.7832 147.035 13.7832C147.696 13.7832 148.353 13.9124 149.006 14.1707C149.654 14.429 150.224 14.7957 150.712 15.2957L149.386 16.9082C149.006 16.6124 148.638 16.3915 148.258 16.2332C147.882 16.079 147.477 15.9957 147.014 15.9957C146.572 15.9957 146.221 16.0874 145.953 16.2624C145.696 16.4457 145.556 16.6957 145.556 17.029C145.556 17.204 145.606 17.3499 145.688 17.4707C145.771 17.5915 145.899 17.6999 146.056 17.804C146.213 17.904 146.399 17.9957 146.609 18.079C146.82 18.1707 147.052 18.2624 147.291 18.3665L148.766 18.9665C149.468 19.2415 150.022 19.629 150.427 20.1165C150.832 20.6082 151.034 21.2624 151.034 22.0624C151.034 22.5415 150.943 22.9957 150.749 23.4207C150.555 23.8457 150.278 24.2207 149.91 24.5457C149.543 24.8665 149.088 25.1249 148.555 25.3207C148.002 25.5207 147.394 25.6165 146.721 25.6165Z" fill="#808080" fill-opacity="0.62"/>
</g>
</svg>
