<svg width="1335" height="333" viewBox="0 0 1335 333" fill="none" xmlns="http://www.w3.org/2000/svg">
<path d="M243.085 84.7061C281.543 121.291 326.033 169.852 270.46 235.832C231.956 281.546 159.757 226.204 89.971 238.23C46.2946 245.756 59.1965 99.6996 91.3248 65.927C141.703 12.9709 204.627 48.1209 243.085 84.7061Z" fill="url(#paint0_angular_1852_806)" fill-opacity="0.5"/>
<path d="M284.896 161.217C305.447 226.293 157.357 298.382 109.227 255.064C72.8768 218.372 69.4262 145.789 97.1938 96.232C124.961 46.6746 210.995 42.9754 251.911 65.9013C292.827 88.8272 270.457 115.493 284.896 161.217Z" fill="url(#paint1_angular_1852_806)" fill-opacity="0.8"/>
<path d="M263.241 158.31C263.241 198.638 215.512 259.42 176.205 242.569C136.899 225.718 94.7852 190.217 94.7852 149.889C94.7852 109.56 134.091 99.3341 176.205 76.8637C218.319 54.3933 263.241 117.981 263.241 158.31Z" fill="white" fill-opacity="0.3"/>
<path d="M262.653 158.31C262.653 178.282 250.811 203.424 234.033 221.481C217.234 239.561 195.732 250.301 176.437 242.029C156.844 233.629 136.557 220.582 121.178 204.625C105.795 188.663 95.3726 169.844 95.3726 149.889C95.3726 139.909 97.8021 131.817 102.084 124.935C106.37 118.046 112.531 112.339 120.036 107.163C127.544 101.986 136.372 97.3565 145.977 92.6091C148.625 91.3004 151.331 89.9826 154.085 88.6421C161.308 85.1256 168.852 81.4533 176.482 77.382C197.18 66.3385 218.654 76.3773 235.081 94.4326C251.5 112.479 262.653 138.322 262.653 158.31Z" stroke="white" stroke-opacity="0.8" stroke-width="1.17498"/>
<circle cx="181.42" cy="158.805" r="43.3172" fill="url(#paint2_angular_1852_806)"/>
<path d="M336.634 199L313.434 129H326.934L347.634 192.3H340.934L362.434 129H374.434L395.334 192.3H388.834L410.034 129H422.434L399.234 199H385.434L366.334 141.9H369.934L350.534 199H336.634ZM463.59 145C467.857 145 471.657 145.833 474.99 147.5C478.39 149.167 481.057 151.733 482.99 155.2C484.923 158.6 485.89 163 485.89 168.4V199H473.39V170C473.39 165.267 472.257 161.733 469.99 159.4C467.79 157.067 464.69 155.9 460.69 155.9C457.757 155.9 455.157 156.5 452.89 157.7C450.623 158.9 448.857 160.7 447.59 163.1C446.39 165.433 445.79 168.4 445.79 172V199H433.29V124.8H445.79V160L443.09 155.6C444.957 152.2 447.657 149.6 451.19 147.8C454.79 145.933 458.923 145 463.59 145ZM501.747 199V145.6H514.247V199H501.747ZM508.047 136.8C505.714 136.8 503.78 136.067 502.247 134.6C500.78 133.133 500.047 131.367 500.047 129.3C500.047 127.167 500.78 125.4 502.247 124C503.78 122.533 505.714 121.8 508.047 121.8C510.38 121.8 512.28 122.5 513.747 123.9C515.28 125.233 516.047 126.933 516.047 129C516.047 131.2 515.314 133.067 513.847 134.6C512.38 136.067 510.447 136.8 508.047 136.8ZM547.153 199.7C542.686 199.7 538.386 199.133 534.253 198C530.186 196.8 526.953 195.367 524.553 193.7L529.353 184.2C531.753 185.733 534.62 187 537.953 188C541.286 189 544.62 189.5 547.953 189.5C551.886 189.5 554.72 188.967 556.453 187.9C558.253 186.833 559.153 185.4 559.153 183.6C559.153 182.133 558.553 181.033 557.353 180.3C556.153 179.5 554.586 178.9 552.653 178.5C550.72 178.1 548.553 177.733 546.153 177.4C543.82 177.067 541.453 176.633 539.053 176.1C536.72 175.5 534.586 174.667 532.653 173.6C530.72 172.467 529.153 170.967 527.953 169.1C526.753 167.233 526.153 164.767 526.153 161.7C526.153 158.3 527.12 155.367 529.053 152.9C530.986 150.367 533.686 148.433 537.153 147.1C540.686 145.7 544.853 145 549.653 145C553.253 145 556.886 145.4 560.553 146.2C564.22 147 567.253 148.133 569.653 149.6L564.853 159.1C562.32 157.567 559.753 156.533 557.153 156C554.62 155.4 552.086 155.1 549.553 155.1C545.753 155.1 542.92 155.667 541.053 156.8C539.253 157.933 538.353 159.367 538.353 161.1C538.353 162.7 538.953 163.9 540.153 164.7C541.353 165.5 542.92 166.133 544.853 166.6C546.786 167.067 548.92 167.467 551.253 167.8C553.653 168.067 556.02 168.5 558.353 169.1C560.686 169.7 562.82 170.533 564.753 171.6C566.753 172.6 568.353 174.033 569.553 175.9C570.753 177.767 571.353 180.2 571.353 183.2C571.353 186.533 570.353 189.433 568.353 191.9C566.42 194.367 563.653 196.3 560.053 197.7C556.453 199.033 552.153 199.7 547.153 199.7ZM611.718 199.7C607.385 199.7 603.418 198.7 599.818 196.7C596.285 194.7 593.451 191.7 591.318 187.7C589.251 183.633 588.218 178.5 588.218 172.3C588.218 166.033 589.218 160.9 591.218 156.9C593.285 152.9 596.085 149.933 599.618 148C603.151 146 607.185 145 611.718 145C616.985 145 621.618 146.133 625.618 148.4C629.685 150.667 632.885 153.833 635.218 157.9C637.618 161.967 638.818 166.767 638.818 172.3C638.818 177.833 637.618 182.667 635.218 186.8C632.885 190.867 629.685 194.033 625.618 196.3C621.618 198.567 616.985 199.7 611.718 199.7ZM582.118 218.4V145.6H594.018V158.2L593.618 172.4L594.618 186.6V218.4H582.118ZM610.318 189C613.318 189 615.985 188.333 618.318 187C620.718 185.667 622.618 183.733 624.018 181.2C625.418 178.667 626.118 175.7 626.118 172.3C626.118 168.833 625.418 165.867 624.018 163.4C622.618 160.867 620.718 158.933 618.318 157.6C615.985 156.267 613.318 155.6 610.318 155.6C607.318 155.6 604.618 156.267 602.218 157.6C599.818 158.933 597.918 160.867 596.518 163.4C595.118 165.867 594.418 168.833 594.418 172.3C594.418 175.7 595.118 178.667 596.518 181.2C597.918 183.733 599.818 185.667 602.218 187C604.618 188.333 607.318 189 610.318 189ZM675.773 199.7C669.839 199.7 664.639 198.533 660.173 196.2C655.773 193.8 652.339 190.533 649.873 186.4C647.473 182.267 646.273 177.567 646.273 172.3C646.273 166.967 647.439 162.267 649.773 158.2C652.173 154.067 655.439 150.833 659.573 148.5C663.773 146.167 668.539 145 673.873 145C679.073 145 683.706 146.133 687.773 148.4C691.839 150.667 695.039 153.867 697.373 158C699.706 162.133 700.873 167 700.873 172.6C700.873 173.133 700.839 173.733 700.773 174.4C700.773 175.067 700.739 175.7 700.673 176.3H656.173V168H694.073L689.173 170.6C689.239 167.533 688.606 164.833 687.273 162.5C685.939 160.167 684.106 158.333 681.773 157C679.506 155.667 676.873 155 673.873 155C670.806 155 668.106 155.667 665.773 157C663.506 158.333 661.706 160.2 660.373 162.6C659.106 164.933 658.473 167.7 658.473 170.9V172.9C658.473 176.1 659.206 178.933 660.673 181.4C662.139 183.867 664.206 185.767 666.873 187.1C669.539 188.433 672.606 189.1 676.073 189.1C679.073 189.1 681.773 188.633 684.173 187.7C686.573 186.767 688.706 185.3 690.573 183.3L697.273 191C694.873 193.8 691.839 195.967 688.173 197.5C684.573 198.967 680.439 199.7 675.773 199.7ZM712.88 199V145.6H724.78V160.3L723.38 156C724.98 152.4 727.48 149.667 730.88 147.8C734.346 145.933 738.646 145 743.78 145V156.9C743.246 156.767 742.746 156.7 742.28 156.7C741.813 156.633 741.346 156.6 740.88 156.6C736.146 156.6 732.38 158 729.58 160.8C726.78 163.533 725.38 167.633 725.38 173.1V199H712.88ZM767.342 199V140H744.142V129H803.542V140H780.342V199H767.342ZM810.829 199V145.6H822.729V160.3L821.329 156C822.929 152.4 825.429 149.667 828.829 147.8C832.296 145.933 836.596 145 841.729 145V156.9C841.196 156.767 840.696 156.7 840.229 156.7C839.762 156.633 839.296 156.6 838.829 156.6C834.096 156.6 830.329 158 827.529 160.8C824.729 163.533 823.329 167.633 823.329 173.1V199H810.829ZM881.424 199V188.2L880.724 185.9V167C880.724 163.333 879.624 160.5 877.424 158.5C875.224 156.433 871.891 155.4 867.424 155.4C864.424 155.4 861.458 155.867 858.524 156.8C855.658 157.733 853.224 159.033 851.224 160.7L846.324 151.6C849.191 149.4 852.591 147.767 856.524 146.7C860.524 145.567 864.658 145 868.924 145C876.658 145 882.624 146.867 886.824 150.6C891.091 154.267 893.224 159.967 893.224 167.7V199H881.424ZM864.624 199.7C860.624 199.7 857.124 199.033 854.124 197.7C851.124 196.3 848.791 194.4 847.124 192C845.524 189.533 844.724 186.767 844.724 183.7C844.724 180.7 845.424 178 846.824 175.6C848.291 173.2 850.658 171.3 853.924 169.9C857.191 168.5 861.524 167.8 866.924 167.8H882.424V176.1H867.824C863.558 176.1 860.691 176.8 859.224 178.2C857.758 179.533 857.024 181.2 857.024 183.2C857.024 185.467 857.924 187.267 859.724 188.6C861.524 189.933 864.024 190.6 867.224 190.6C870.291 190.6 873.024 189.9 875.424 188.5C877.891 187.1 879.658 185.033 880.724 182.3L882.824 189.8C881.624 192.933 879.458 195.367 876.324 197.1C873.258 198.833 869.358 199.7 864.624 199.7ZM939.566 145C943.833 145 947.633 145.833 950.966 147.5C954.366 149.167 957.033 151.733 958.966 155.2C960.9 158.6 961.866 163 961.866 168.4V199H949.366V170C949.366 165.267 948.233 161.733 945.966 159.4C943.766 157.067 940.666 155.9 936.666 155.9C933.733 155.9 931.133 156.5 928.866 157.7C926.6 158.9 924.833 160.7 923.566 163.1C922.366 165.433 921.766 168.4 921.766 172V199H909.266V145.6H921.166V160L919.066 155.6C920.933 152.2 923.633 149.6 927.166 147.8C930.766 145.933 934.9 145 939.566 145ZM994.223 199.7C989.757 199.7 985.457 199.133 981.323 198C977.257 196.8 974.023 195.367 971.623 193.7L976.423 184.2C978.823 185.733 981.69 187 985.023 188C988.357 189 991.69 189.5 995.023 189.5C998.957 189.5 1001.79 188.967 1003.52 187.9C1005.32 186.833 1006.22 185.4 1006.22 183.6C1006.22 182.133 1005.62 181.033 1004.42 180.3C1003.22 179.5 1001.66 178.9 999.723 178.5C997.79 178.1 995.623 177.733 993.223 177.4C990.89 177.067 988.523 176.633 986.123 176.1C983.79 175.5 981.657 174.667 979.723 173.6C977.79 172.467 976.223 170.967 975.023 169.1C973.823 167.233 973.223 164.767 973.223 161.7C973.223 158.3 974.19 155.367 976.123 152.9C978.057 150.367 980.757 148.433 984.223 147.1C987.757 145.7 991.923 145 996.723 145C1000.32 145 1003.96 145.4 1007.62 146.2C1011.29 147 1014.32 148.133 1016.72 149.6L1011.92 159.1C1009.39 157.567 1006.82 156.533 1004.22 156C1001.69 155.4 999.157 155.1 996.623 155.1C992.823 155.1 989.99 155.667 988.123 156.8C986.323 157.933 985.423 159.367 985.423 161.1C985.423 162.7 986.023 163.9 987.223 164.7C988.423 165.5 989.99 166.133 991.923 166.6C993.857 167.067 995.99 167.467 998.323 167.8C1000.72 168.067 1003.09 168.5 1005.42 169.1C1007.76 169.7 1009.89 170.533 1011.82 171.6C1013.82 172.6 1015.42 174.033 1016.62 175.9C1017.82 177.767 1018.42 180.2 1018.42 183.2C1018.42 186.533 1017.42 189.433 1015.42 191.9C1013.49 194.367 1010.72 196.3 1007.12 197.7C1003.52 199.033 999.223 199.7 994.223 199.7ZM1053.69 199.7C1048.09 199.7 1043.09 198.533 1038.69 196.2C1034.35 193.8 1030.95 190.533 1028.49 186.4C1026.02 182.267 1024.79 177.567 1024.79 172.3C1024.79 166.967 1026.02 162.267 1028.49 158.2C1030.95 154.067 1034.35 150.833 1038.69 148.5C1043.09 146.167 1048.09 145 1053.69 145C1058.89 145 1063.45 146.067 1067.39 148.2C1071.39 150.267 1074.42 153.333 1076.49 157.4L1066.89 163C1065.29 160.467 1063.32 158.6 1060.99 157.4C1058.72 156.2 1056.25 155.6 1053.59 155.6C1050.52 155.6 1047.75 156.267 1045.29 157.6C1042.82 158.933 1040.89 160.867 1039.49 163.4C1038.09 165.867 1037.39 168.833 1037.39 172.3C1037.39 175.767 1038.09 178.767 1039.49 181.3C1040.89 183.767 1042.82 185.667 1045.29 187C1047.75 188.333 1050.52 189 1053.59 189C1056.25 189 1058.72 188.4 1060.99 187.2C1063.32 186 1065.29 184.133 1066.89 181.6L1076.49 187.2C1074.42 191.2 1071.39 194.3 1067.39 196.5C1063.45 198.633 1058.89 199.7 1053.69 199.7ZM1087.29 199V145.6H1099.19V160.3L1097.79 156C1099.39 152.4 1101.89 149.667 1105.29 147.8C1108.76 145.933 1113.06 145 1118.19 145V156.9C1117.66 156.767 1117.16 156.7 1116.69 156.7C1116.23 156.633 1115.76 156.6 1115.29 156.6C1110.56 156.6 1106.79 158 1103.99 160.8C1101.19 163.533 1099.79 167.633 1099.79 173.1V199H1087.29ZM1128.8 199V145.6H1141.3V199H1128.8ZM1135.1 136.8C1132.76 136.8 1130.83 136.067 1129.3 134.6C1127.83 133.133 1127.1 131.367 1127.1 129.3C1127.1 127.167 1127.83 125.4 1129.3 124C1130.83 122.533 1132.76 121.8 1135.1 121.8C1137.43 121.8 1139.33 122.5 1140.8 123.9C1142.33 125.233 1143.1 126.933 1143.1 129C1143.1 131.2 1142.36 133.067 1140.9 134.6C1139.43 136.067 1137.5 136.8 1135.1 136.8ZM1187.3 199.7C1182.77 199.7 1178.74 198.7 1175.2 196.7C1171.67 194.7 1168.87 191.7 1166.8 187.7C1164.8 183.633 1163.8 178.5 1163.8 172.3C1163.8 166.033 1164.84 160.9 1166.9 156.9C1169.04 152.9 1171.87 149.933 1175.4 148C1179 146 1182.97 145 1187.3 145C1192.57 145 1197.2 146.133 1201.2 148.4C1205.27 150.667 1208.47 153.833 1210.8 157.9C1213.2 161.967 1214.4 166.767 1214.4 172.3C1214.4 177.833 1213.2 182.633 1210.8 186.7C1208.47 190.767 1205.27 193.967 1201.2 196.3C1197.2 198.567 1192.57 199.7 1187.3 199.7ZM1157.7 199V124.8H1170.2V158L1169.2 172.2L1169.6 186.4V199H1157.7ZM1185.9 189C1188.9 189 1191.57 188.333 1193.9 187C1196.3 185.667 1198.2 183.733 1199.6 181.2C1201 178.667 1201.7 175.7 1201.7 172.3C1201.7 168.833 1201 165.867 1199.6 163.4C1198.2 160.867 1196.3 158.933 1193.9 157.6C1191.57 156.267 1188.9 155.6 1185.9 155.6C1182.9 155.6 1180.2 156.267 1177.8 157.6C1175.4 158.933 1173.5 160.867 1172.1 163.4C1170.7 165.867 1170 168.833 1170 172.3C1170 175.7 1170.7 178.667 1172.1 181.2C1173.5 183.733 1175.4 185.667 1177.8 187C1180.2 188.333 1182.9 189 1185.9 189ZM1251.36 199.7C1245.43 199.7 1240.23 198.533 1235.76 196.2C1231.36 193.8 1227.93 190.533 1225.46 186.4C1223.06 182.267 1221.86 177.567 1221.86 172.3C1221.86 166.967 1223.03 162.267 1225.36 158.2C1227.76 154.067 1231.03 150.833 1235.16 148.5C1239.36 146.167 1244.13 145 1249.46 145C1254.66 145 1259.29 146.133 1263.36 148.4C1267.43 150.667 1270.63 153.867 1272.96 158C1275.29 162.133 1276.46 167 1276.46 172.6C1276.46 173.133 1276.43 173.733 1276.36 174.4C1276.36 175.067 1276.33 175.7 1276.26 176.3H1231.76V168H1269.66L1264.76 170.6C1264.83 167.533 1264.19 164.833 1262.86 162.5C1261.53 160.167 1259.69 158.333 1257.36 157C1255.09 155.667 1252.46 155 1249.46 155C1246.39 155 1243.69 155.667 1241.36 157C1239.09 158.333 1237.29 160.2 1235.96 162.6C1234.69 164.933 1234.06 167.7 1234.06 170.9V172.9C1234.06 176.1 1234.79 178.933 1236.26 181.4C1237.73 183.867 1239.79 185.767 1242.46 187.1C1245.13 188.433 1248.19 189.1 1251.66 189.1C1254.66 189.1 1257.36 188.633 1259.76 187.7C1262.16 186.767 1264.29 185.3 1266.16 183.3L1272.86 191C1270.46 193.8 1267.43 195.967 1263.76 197.5C1260.16 198.967 1256.03 199.7 1251.36 199.7Z" fill="url(#paint3_linear_1852_806)"/>
<defs>
<radialGradient id="paint0_angular_1852_806" cx="0" cy="0" r="1" gradientUnits="userSpaceOnUse" gradientTransform="translate(169.476 152.351) rotate(43.5707) scale(115.449 89.0693)">
<stop stop-color="#743EE4"/>
<stop offset="0.151042" stop-color="#BD81D9"/>
<stop offset="0.291667" stop-color="#FDBEA2"/>
<stop offset="0.421875" stop-color="#FBC0E0"/>
<stop offset="0.557292" stop-color="#743EE4"/>
<stop offset="0.677083" stop-color="#5E8FF3"/>
<stop offset="0.786458" stop-color="#3E30E5"/>
<stop offset="0.890625" stop-color="#743EE4"/>
</radialGradient>
<radialGradient id="paint1_angular_1852_806" cx="0" cy="0" r="1" gradientUnits="userSpaceOnUse" gradientTransform="translate(173.99 153.961) rotate(119.262) scale(114.159 86.5553)">
<stop stop-color="#743EE4"/>
<stop offset="0.151042" stop-color="#BD81D9"/>
<stop offset="0.291667" stop-color="#FDBEA2"/>
<stop offset="0.421875" stop-color="#FBC0E0"/>
<stop offset="0.557292" stop-color="#743EE4"/>
<stop offset="0.677083" stop-color="#5E8FF3"/>
<stop offset="0.786458" stop-color="#3E30E5"/>
<stop offset="0.890625" stop-color="#743EE4"/>
</radialGradient>
<radialGradient id="paint2_angular_1852_806" cx="0" cy="0" r="1" gradientUnits="userSpaceOnUse" gradientTransform="translate(181.42 158.805) rotate(90) scale(43.3172)">
<stop stop-color="#F7F7F7"/>
<stop offset="0.26744" stop-color="white"/>
<stop offset="0.510417" stop-color="#E9E9E9"/>
<stop offset="0.744792" stop-color="#CEE2F3"/>
<stop offset="0.867215" stop-color="#EFEFEF"/>
</radialGradient>
<linearGradient id="paint3_linear_1852_806" x1="1206.55" y1="170.43" x2="862.916" y2="518.496" gradientUnits="userSpaceOnUse">
<stop stop-color="#145AFF"/>
<stop offset="1" stop-color="#9974F6"/>
</linearGradient>
</defs>
</svg>
