<svg width="171" height="40" viewBox="0 0 171 40" fill="none" xmlns="http://www.w3.org/2000/svg">
<g clip-path="url(#clip0_179_247)">
<mask id="mask0_179_247" style="mask-type:luminance" maskUnits="userSpaceOnUse" x="0" y="0" width="171" height="40">
<path d="M171 0H0V40H171V0Z" fill="white"/>
</mask>
<g mask="url(#mask0_179_247)">
<path d="M20 40C31.0457 40 40 31.0457 40 20C40 8.95431 31.0457 0 20 0C8.95431 0 0 8.95431 0 20C0 31.0457 8.95431 40 20 40Z" fill="#808080" fill-opacity="0.62"/>
<path fill-rule="evenodd" clip-rule="evenodd" d="M22.6667 20L17 20.0002V14.0002H22.6667C24.3235 14.0002 25.6667 15.3432 25.6667 17C25.6667 18.6569 24.3235 20 22.6667 20ZM22.6667 10H13V30H17V24.0002H22.6667C26.5327 24.0002 29.6667 20.866 29.6667 17C29.6667 13.134 26.5327 10 22.6667 10Z" fill="white"/>
<path fill-rule="evenodd" clip-rule="evenodd" d="M53.3335 26.6667V13.3333H59.459C62.3066 13.3333 63.8575 15.2577 63.8575 17.5553C63.8575 19.833 62.2875 21.7572 59.459 21.7572H56.1219V26.6667H53.3335ZM71.0718 16.711V19.1453C70.8943 19.1062 70.6785 19.087 70.3843 19.087C69.5593 19.087 68.4591 19.5578 68.0466 20.1672V26.6667H65.554V16.9462H68.0466V18.2228C68.7341 17.3978 69.8935 16.711 71.0718 16.711ZM77.0245 16.711C80.1665 16.711 82.0515 18.9887 82.0515 21.6788C82.0515 24.369 80.1665 26.6667 77.0245 26.6667C73.902 26.6667 72.0168 24.369 72.0168 21.6788C72.0168 18.9887 73.902 16.711 77.0245 16.711ZM59.0671 15.7877C60.1656 15.7877 61.0115 16.4552 61.0115 17.5553C61.0115 18.6353 60.1656 19.3028 59.0671 19.3028H56.1219V15.7877H59.0671ZM92.9561 13.3333V26.6667H90.4426V25.2133C89.696 26.1558 88.6758 26.6667 87.5166 26.6667C85.1406 26.6667 83.3146 24.8598 83.3146 21.6788C83.3146 18.5962 85.1023 16.711 87.5166 16.711C88.6358 16.711 89.696 17.1818 90.4426 18.1637V13.3333H92.9561ZM77.0245 18.9295C78.5946 18.9295 79.4596 20.2063 79.4596 21.6788C79.4596 23.1715 78.5946 24.4473 77.0245 24.4473C75.472 24.4473 74.6086 23.1715 74.6086 21.6788C74.6086 20.2063 75.472 18.9295 77.0245 18.9295ZM97.9303 16.9462V22.6998C97.9303 24.0157 98.6178 24.4473 99.678 24.4473C100.64 24.4473 101.406 23.9173 101.838 23.3673V16.9462H104.332V26.6667H101.838V25.2332C101.19 25.94 100.052 26.6667 98.5011 26.6667C96.4193 26.6667 95.4376 25.5275 95.4376 23.6815V16.9462H97.9303ZM119.621 14.3542V16.9462H121.544V19.1262H119.621V23.3873C119.621 23.9957 119.934 24.4473 120.484 24.4473C120.857 24.4473 121.212 24.3098 121.348 24.1532L121.879 26.0575C121.506 26.3917 120.838 26.6667 119.797 26.6667C118.049 26.6667 117.127 25.7633 117.127 24.0548V19.1262H115.557V16.9462H117.127V14.3542H119.621ZM131.332 13.3333V18.4778H137.518V13.3333H140.326V26.6667H137.518V20.913H131.332V26.6667H128.545V13.3333H131.332ZM145.342 16.9462V22.6998C145.342 24.0157 146.029 24.4473 147.089 24.4473C148.052 24.4473 148.818 23.9173 149.25 23.3673V16.9462H151.744V26.6667H149.25V25.2332C148.602 25.94 147.464 26.6667 145.913 26.6667C143.831 26.6667 142.849 25.5275 142.849 23.6815V16.9462H145.342ZM168.604 14.3542V16.9462H170.528V19.1262H168.604V23.3873C168.604 23.9957 168.918 24.4473 169.468 24.4473C169.84 24.4473 170.195 24.3098 170.333 24.1532L170.862 26.0575C170.49 26.3917 169.821 26.6667 168.78 26.6667C167.033 26.6667 166.11 25.7633 166.11 24.0548V19.1262H164.54V16.9462H166.11V14.3542H168.604ZM111.231 16.711C113.176 16.711 114.354 17.5553 114.983 18.4195L113.352 19.9505C112.901 19.2828 112.213 18.9295 111.35 18.9295C109.837 18.9295 108.777 20.0295 108.777 21.6788C108.777 23.3282 109.837 24.4473 111.35 24.4473C112.213 24.4473 112.901 24.0548 113.352 23.4065L114.983 24.9383C114.354 25.8025 113.176 26.6667 111.231 26.6667C108.325 26.6667 106.205 24.6048 106.205 21.6788C106.205 18.7728 108.325 16.711 111.231 16.711ZM160.036 16.711C162.137 16.711 163.138 17.8887 163.138 19.7345V26.6667H160.624V20.6972C160.624 19.3812 159.938 18.9295 158.877 18.9295C157.895 18.9295 157.15 19.4795 156.717 20.0295V26.6667H154.224V16.9462H156.717V18.1637C157.326 17.457 158.504 16.711 160.036 16.711ZM88.3016 18.9295C89.1268 18.9295 90.0301 19.3812 90.4426 20.0097V23.3673C90.0301 23.9957 89.1268 24.4473 88.3016 24.4473C86.8691 24.4473 85.8873 23.3282 85.8873 21.6788C85.8873 20.0488 86.8691 18.9295 88.3016 18.9295Z" fill="#808080" fill-opacity="0.62"/>
</g>
</g>
<defs>
<clipPath id="clip0_179_247">
<rect width="171" height="40" fill="white"/>
</clipPath>
</defs>
</svg>
