<svg width="120" height="40" viewBox="0 0 120 40" fill="none" xmlns="http://www.w3.org/2000/svg">
<mask id="mask0_179_255" style="mask-type:luminance" maskUnits="userSpaceOnUse" x="77" y="4" width="31" height="31">
<path d="M77.8667 4.99585H107.575V34.3333H77.8667V4.99585Z" fill="white"/>
</mask>
<g mask="url(#mask0_179_255)">
<path d="M107.575 34.3333H77.9209V4.99585H107.575V34.3333Z" fill="#808080" fill-opacity="0.62"/>
</g>
<mask id="mask1_179_255" style="mask-type:luminance" maskUnits="userSpaceOnUse" x="12" y="9" width="65" height="26">
<path d="M12.4165 9.6001H76.7998V34.3334H12.4165V9.6001Z" fill="white"/>
</mask>
<g mask="url(#mask1_179_255)">
<path d="M72.829 25.2625V29.525H76.4748V25.2625H72.829ZM65.8332 27.0083C64.1457 27.0083 63.8165 25.3708 63.8165 22.175C63.8165 18.975 64.1457 17.3375 65.8332 17.3375C67.4915 17.3375 67.8207 18.975 67.8207 22.175C67.8207 25.3708 67.4915 27.0083 65.8332 27.0083ZM54.204 27.3375C52.3248 27.3375 52.1582 25.1792 52.1582 22.175C52.1582 19.1667 52.3248 17.0083 54.204 17.0083C55.7498 17.0083 56.2457 18.5125 56.2457 22.175C56.2457 25.8333 55.7498 27.3375 54.204 27.3375ZM42.554 27.3375C40.6748 27.3375 40.5082 25.1792 40.5082 22.175C40.5082 19.1667 40.6748 17.0083 42.554 17.0083C44.0998 17.0083 44.5998 18.5125 44.5998 22.175C44.5998 25.8333 44.0998 27.3375 42.554 27.3375ZM67.0748 14.4375C65.5832 14.4375 64.5332 15.0125 63.704 16.3792H63.6498V14.8208H60.004V20.5C59.7207 16.475 58.2582 14.3667 54.204 14.4375C50.2082 14.4375 48.6207 16.7083 48.3832 20.9458C48.1748 16.6333 46.7582 14.3625 42.554 14.4375C38.1873 14.4375 36.6957 17.1458 36.6957 22.175C36.6957 22.7833 36.7165 23.3542 36.754 23.8958H33.1457C33.1457 26.2708 32.5665 27.3375 31.2957 27.3375C29.5832 27.3375 29.2498 25.8333 29.2498 22.2C29.2498 18.8125 29.554 17.1708 31.4332 17.1708C32.8707 17.1708 33.1457 18.7042 33.1457 20.125H36.7915C36.7915 16.6541 34.9665 14.4375 31.4582 14.4375C27.9498 14.4375 25.4373 16.1333 25.4373 22.175C25.4373 22.3375 25.4415 22.4958 25.4415 22.65C25.1623 20.9792 24.1957 19.7958 21.779 18.7583L18.7165 17.4458C17.029 16.7333 16.6707 15.9958 16.6707 14.7958C16.6707 13.6458 17.1415 12.525 18.9373 12.525C20.454 12.525 21.0915 13.5917 21.0915 15.4208H24.904V14.875C24.904 11.1333 22.3332 9.62915 18.7957 9.62915C15.0415 9.62915 12.6915 11.5708 12.6915 15.3667C12.6915 18.6208 14.3207 20.0708 17.8582 21.2708C20.4832 22.175 21.3957 22.8292 21.3957 24.6042C21.3957 26.2458 20.2332 27.0083 19.0207 27.0083C16.9207 27.0083 16.3957 25.8333 16.3957 24.0042V23.4292H12.4165V24.2208C12.4165 27.8292 14.1832 29.9083 18.6873 29.9083C22.879 29.9083 25.3998 28.1458 25.5332 24.25C25.954 28.5167 27.804 29.9083 31.129 29.9083C35.0332 29.9083 36.6832 27.8833 36.7873 24.2583C37.1415 28.0125 38.6373 29.9792 42.554 29.9083C46.5498 29.9083 48.1332 27.6417 48.3748 23.4C48.5832 27.7167 49.9998 29.9833 54.204 29.9083C58.0957 29.9083 59.704 27.7542 60.004 23.7167V34.3333H63.8165V28.1583H63.8707C64.6707 29.3333 65.6373 29.9083 67.0748 29.9083C70.1957 29.9083 71.6332 27.6375 71.6332 22.175C71.6332 16.7083 70.1957 14.4375 67.0748 14.4375Z" fill="#808080" fill-opacity="0.62"/>
</g>
<path d="M97.3165 29.4875H101.129V25.8792H97.3165V29.4875ZM97.3165 9.75417V16.3167L97.8415 24.05H100.604L101.129 16.3167V9.75417H97.3165ZM93.904 9.75H90.0915V14.7833H84.3623V29.4875H88.1748V17.3542H90.0915V25.7708C90.0915 28.75 90.6415 29.6542 93.6248 29.6542C94.5081 29.6542 95.2831 29.5708 96.1123 29.4875V26.8667C95.8623 26.8917 95.5581 26.9208 95.254 26.9208C94.1498 26.9208 93.904 26.4542 93.904 25.3083V17.3542H96.1123V14.7833H93.904V9.75ZM88.1748 9.75417H84.3623V12.9792H88.1748V9.75417Z" fill="white"/>
</svg>
